HIERARCHY
ROOT Hips
{
	OFFSET	0.00	0.00	0.00
	CHANNELS 6 Xposition Yposition Zposition Zrotation Xrotation Yrotation
	JOINT LeftUpLeg
	{
		OFFSET	 0.126116	-0.014019	-0.065224
		CHANNELS 3 Zrotation Xrotation Yrotation
		JOINT LeftLeg
		{
			OFFSET	 0.000000	 0.000000	 0.569914
			CHANNELS 3 Zrotation Xrotation Yrotation
			JOINT LeftFoot
			{
				OFFSET	 0.000000	 0.000000	 0.544423
				CHANNELS 3 Zrotation Xrotation Yrotation
				JOINT LeftToeBase
				{
					OFFSET	 0.000000	 0.000000	 0.207117
					CHANNELS 3 Zrotation Xrotation Yrotation
					End Site
					{
						OFFSET	 0.000000	 0.000000	 0.207117
					}
				}
			}
		}
	}
	JOINT RightUpLeg
	{
		OFFSET	-0.124023	-0.008373	-0.065224
		CHANNELS 3 Zrotation Xrotation Yrotation
		JOINT RightLeg
		{
			OFFSET	 0.000000	 0.000000	 0.570047
			CHANNELS 3 Zrotation Xrotation Yrotation
			JOINT RightFoot
			{
				OFFSET	 0.000000	 0.000000	 0.544354
				CHANNELS 3 Zrotation Xrotation Yrotation
				JOINT RightToeBase
				{
					OFFSET	 0.000000	 0.000000	 0.207540
					CHANNELS 3 Zrotation Xrotation Yrotation
					End Site
					{
						OFFSET	 0.000000	 0.000000	 0.207540
					}
				}
			}
		}
	}
	JOINT Spine
	{
		OFFSET	 0.000184	-0.007763	 0.117403
		CHANNELS 3 Zrotation Xrotation Yrotation
		JOINT Spine1
		{
			OFFSET	 0.000000	 0.000000	 0.137269
			CHANNELS 3 Zrotation Xrotation Yrotation
			JOINT Spine2
			{
				OFFSET	 0.000000	 0.000000	 0.156879
				CHANNELS 3 Zrotation Xrotation Yrotation
				JOINT LeftShoulder
				{
					OFFSET	 0.080501	-0.002496	 0.160144
					CHANNELS 3 Zrotation Xrotation Yrotation
					JOINT LeftArm
					{
						OFFSET	 0.000000	 0.000000	 0.164363
						CHANNELS 3 Zrotation Xrotation Yrotation
						JOINT LeftForeArm
						{
							OFFSET	 0.000000	 0.000000	 0.364576
							CHANNELS 3 Zrotation Xrotation Yrotation
							JOINT LeftHand
							{
								OFFSET	 0.000000	 0.000000	 0.360812
								CHANNELS 3 Zrotation Xrotation Yrotation
								JOINT LeftHandIndex1
								{
									OFFSET	 0.000000	 0.000000	 0.086006
									CHANNELS 3 Zrotation Xrotation Yrotation
									JOINT LeftHandIndex2
									{
										OFFSET	 0.000000	 0.000000	 0.047236
										CHANNELS 3 Zrotation Xrotation Yrotation
										JOINT LeftHandIndex3
										{
											OFFSET	-0.004284	-0.000551	 0.038166
											CHANNELS 3 Zrotation Xrotation Yrotation
											End Site
											{
												OFFSET	-0.004284	-0.000551	 0.038166
											}
										}
									}
								}
							}
						}
					}
				}
				JOINT Neck
				{
					OFFSET	 0.000000	 0.000000	 0.176489
					CHANNELS 3 Zrotation Xrotation Yrotation
					JOINT Head
					{
						OFFSET	 0.000000	-0.001747	 0.077940
						CHANNELS 3 Zrotation Xrotation Yrotation
						End Site
						{
							OFFSET	 0.000000	-0.001747	 0.077940
						}
					}
				}
				JOINT RightShoulder
				{
					OFFSET	-0.080363	 0.000306	 0.159706
					CHANNELS 3 Zrotation Xrotation Yrotation
					JOINT RightArm
					{
						OFFSET	 0.000000	 0.000000	 0.164196
						CHANNELS 3 Zrotation Xrotation Yrotation
						JOINT RightForeArm
						{
							OFFSET	 0.000000	 0.000000	 0.365611
							CHANNELS 3 Zrotation Xrotation Yrotation
							JOINT RightHand
							{
								OFFSET	 0.000000	 0.000000	 0.360648
								CHANNELS 3 Zrotation Xrotation Yrotation
								JOINT RightHandIndex1
								{
									OFFSET	 0.000000	 0.000000	 0.069977
									CHANNELS 3 Zrotation Xrotation Yrotation
									JOINT RightHandIndex2
									{
										OFFSET	 0.000000	 0.000000	 0.052305
										CHANNELS 3 Zrotation Xrotation Yrotation
										JOINT RightHandIndex3
										{
											OFFSET	 0.009002	-0.000782	 0.042196
											CHANNELS 3 Zrotation Xrotation Yrotation
											End Site
											{
												OFFSET	 0.009002	-0.000782	 0.042196
											}
										}
									}
								}
							}
						}
					}
				}
			}
		}
	}
}
MOTION
Frames:    6
Frame Time: 0.03333334
 0.000212	 0.049478	 1.263180	-0.062142	 2.946384	 0.820297	 23.000940	-11.625710	 176.650700	 2.283409	-20.839360	 0.961130	 1.691701	 73.727500	-1.916749	-2.385833	 28.452750	 0.000004	-15.665570	-10.789500	-177.854800	-0.610076	-19.186310	 1.493568	 5.833827	 72.818720	 0.510840	 2.384659	 28.388700	-0.000001	-7.360393	 7.866181	-0.454335	 1.427020	-6.671453	 0.377526	-3.766575	 11.330550	 0.858529	-91.038670	 68.911000	-177.533600	-6.365983	 0.646786	-25.874050	 21.240060	 0.101386	-2.776946	-7.932150	-12.157740	-4.477187	-2.027600	 6.559038	 9.033609	-5.188889	 0.308190	 3.541030	-5.234859	 0.342567	 0.430617	 4.648669	 20.077410	-7.417132	-8.935067	-14.802330	 1.667888	 88.836060	 67.477680	 177.014300	 8.831338	 10.948390	 21.913360	-23.831420	 0.045879	 2.810156	 4.970089	-11.794890	 5.891219	 1.803333	 3.979147	-15.098590	 4.898592	 3.004813	-9.310344	 5.224449	 0.395017	 2.014677
 0.000110	 0.050854	 1.261490	-0.051401	 3.099051	 0.845313	 23.353370	-12.322980	 176.706500	 2.284981	-21.743130	 1.001412	 2.273772	 74.097080	-2.535984	-2.385833	 28.452750	 0.000004	-16.067880	-11.480790	-177.992400	-0.580234	-20.115810	 1.573287	 5.657638	 73.228390	 0.718699	 2.384659	 28.388700	-0.000001	-8.596853	 8.021924	-0.466165	 1.417750	-6.960907	 0.377979	-3.752029	 11.847200	 0.890942	-91.008510	 68.708180	-177.470500	-6.102336	 0.845384	-26.481030	 20.564890	 0.156257	-3.066800	-7.713205	-12.375150	-4.581276	-2.027600	 6.559038	 9.033609	-5.188889	 0.308190	 3.541030	-5.234859	 0.342567	 0.430617	 4.692919	 20.641540	-7.591690	-8.884304	-15.154140	 1.646572	 88.788770	 67.155250	 176.929000	 8.522470	 11.281860	 22.334240	-23.267800	 0.100294	 3.100327	 4.704396	-11.882080	 5.815927	 1.803333	 3.979147	-15.098590	 4.898592	 3.004813	-9.310344	 5.224449	 0.395017	 2.014677
-0.000699	 0.059808	 1.251638	 0.036998	 4.085021	 0.985357	 25.260200	-16.306620	 177.142100	 2.356300	-26.590110	 1.261968	 6.522927	 76.028180	-7.155919	-2.385833	 28.452750	 0.000004	-18.389300	-15.316520	-178.891300	-0.416036	-24.895970	 1.995030	 3.757026	 75.282530	 2.906794	 2.384659	 28.388700	-0.000001	-15.126880	 8.848915	-0.512122	 1.388705	-7.963470	 0.335555	-3.734199	 14.187670	 1.070644	-90.877790	 67.797620	-177.217400	-4.790673	 2.324571	-30.028850	 16.804750	 0.561105	-4.630959	-6.789530	-13.782040	-5.336517	-2.027600	 6.559038	 9.033609	-5.188889	 0.308190	 3.541030	-5.234859	 0.342567	 0.430617	 4.737085	 23.425300	-8.394413	-8.473945	-16.998680	 1.550380	 88.537120	 65.395440	 176.514800	 6.605105	 13.299560	 24.856780	-20.008510	 0.502903	 4.669409	 3.327522	-12.501290	 5.521728	 1.803333	 3.979147	-15.098590	 4.898592	 3.004813	-9.310344	 5.224449	 0.395017	 2.014677
-0.001786	 0.072975	 1.240149	 0.153613	 5.535581	 1.155927	 27.710660	-21.084180	 178.061900	 2.526469	-31.673460	 1.546297	 14.494140	 77.721530	-15.753360	-2.385832	 28.452790	-0.000001	-21.385210	-19.750550	 179.701300	-0.532299	-29.574180	 2.280955	-0.832126	 77.156660	 8.335779	 2.384659	 28.388700	-0.000001	-22.123190	 9.808660	-0.577419	 1.375019	-7.905541	 0.233918	-3.691613	 16.087060	 1.201970	-90.830250	 66.412420	-177.300400	-3.430227	 3.183429	-34.196780	 11.574250	 1.250895	-6.394118	-6.632316	-15.244500	-6.651277	-2.027600	 6.559038	 9.033609	-5.188889	 0.308190	 3.541030	-5.234859	 0.342567	 0.430617	 4.497192	 25.626360	-8.786293	-7.917651	-18.412160	 1.345498	 88.401360	 63.172230	 176.509800	 3.942002	 14.638150	 28.102890	-15.729250	 1.188121	 6.437396	 1.871836	-13.021020	 5.641916	 1.803333	 3.979147	-15.098590	 4.898592	 3.004813	-9.310344	 5.224449	 0.395017	 2.014677
-0.002703	 0.088529	 1.229636	 0.352706	 7.333045	 1.254842	 30.174560	-25.666700	 179.575600	 2.591962	-35.614500	 1.753003	 25.057920	 78.277710	-27.158430	-2.385832	 28.452790	-0.000001	-24.568410	-24.121180	 177.899000	-0.734426	-33.254220	 2.422611	-8.637367	 78.267390	 17.287330	 2.384659	 28.388700	-0.000001	-28.022350	 10.607030	-0.615085	 1.362297	-7.364833	 0.134109	-3.576471	 17.313580	 1.289285	-91.093280	 65.265940	-178.162600	-2.377348	 3.972872	-37.545380	 6.496802	 2.109766	-7.991964	-7.064672	-16.223780	-8.145527	-2.027600	 6.559038	 9.033609	-5.188889	 0.308190	 3.541030	-5.234859	 0.342567	 0.430617	 4.054657	 26.717190	-8.802484	-7.272218	-19.115670	 1.153173	 88.615790	 61.513480	 177.233500	 1.106416	 15.664390	 30.831400	-11.547390	 2.043278	 8.039283	 0.611349	-13.388470	 5.998913	 1.803333	 3.979147	-15.098590	 4.898592	 3.004813	-9.310344	 5.224449	 0.395017	 2.014677
-0.003705	 0.105066	 1.223898	 0.651037	 9.469441	 1.261546	 31.296010	-29.418010	-178.616500	 2.558756	-37.486920	 1.811730	 33.282850	 77.475870	-36.248850	-2.385833	 28.452760	 0.000004	-26.454790	-27.824260	 176.091300	-0.888313	-35.051040	 2.448390	-16.913600	 78.178620	 26.669660	 2.384659	 28.388700	-0.000001	-32.828570	 11.277160	-0.609995	 1.320880	-6.551078	 0.058785	-3.316508	 17.976070	 1.383935	-91.761060	 64.791560	-179.960300	-1.752959	 5.189219	-39.632320	 2.313364	 3.105233	-9.443260	-7.510446	-16.733320	-9.532311	-2.027600	 6.559038	 9.033609	-5.188889	 0.308190	 3.541030	-5.234859	 0.342567	 0.430617	 3.559777	 26.792710	-8.763513	-6.491528	-19.240200	 1.038133	 89.240300	 60.764400	 178.747600	-1.944564	 17.340030	 33.109710	-7.660906	 3.039910	 9.501417	-0.415320	-13.770490	 6.351071	 1.803333	 3.979147	-15.098590	 4.898592	 3.004813	-9.310344	 5.224449	 0.395017	 2.014677
